<svg xmlns="http://www.w3.org/2000/svg" viewBox="0 0 48 32" fill="none">
  <rect width="48" height="32" rx="4" fill="#1A1F71"/>
  <path d="M19.5 21H17L18.9 11H21.4L19.5 21ZM15.3 11L12.9 18.1L12.6 16.6L11.8 12.1C11.8 12.1 11.7 11 10.3 11H6.1L6 11.2C6 11.2 7.5 11.5 9.3 12.6L11.5 21H14.1L18 11H15.3ZM36.3 21H38.5L36.6 11H34.6C33.4 11 33.1 12 33.1 12L29.2 21H31.8L32.3 19.5H35.5L35.8 21H36.3ZM33 17.5L34.4 13.5L35.2 17.5H33ZM28.9 13.6L29.3 11.2C29.3 11.2 27.9 10.8 26.5 10.8C25 10.8 21.5 11.5 21.5 14.5C21.5 17.3 25.5 17.3 25.5 18.8C25.5 20.3 21.9 19.9 20.6 18.9L20.2 21.4C20.2 21.4 21.6 22 23.6 22C25.6 22 28.9 20.9 28.9 18.1C28.9 15.2 24.9 14.9 24.9 13.7C24.9 12.5 27.6 12.7 28.9 13.6Z" fill="white"/>
</svg>
